<?xml version="1.0" encoding="UTF-8"?>
<!DOCTYPE svg PUBLIC "-//W3C//DTD SVG 1.1//EN" "http://www.w3.org/Graphics/SVG/1.1/DTD/svg11.dtd">
<!-- Creator: CorelDRAW 2019 (64-Bit) -->
<svg xmlns="http://www.w3.org/2000/svg" xml:space="preserve" width="26.7976mm" height="26.8111mm" version="1.1" style="shape-rendering:geometricPrecision; text-rendering:geometricPrecision; image-rendering:optimizeQuality; fill-rule:evenodd; clip-rule:evenodd"
viewBox="0 0 141.38 141.46"
 xmlns:xlink="http://www.w3.org/1999/xlink">
 <defs>
  <style type="text/css">
   <![CDATA[
    .fil0 {fill:#91268E;fill-rule:nonzero}
   ]]>
  </style>
 </defs>
 <g id="Слой_x0020_1">
  <metadata id="CorelCorpID_0Corel-Layer"/>
  <g id="_2473208192832">
   <path class="fil0" d="M4.04 137.41l133.3 0 0 -12.19 -133.3 0 0 12.19zm137.34 -14.24l0 16.28c-0.01,1.1 -0.91,1.99 -2.02,1.99l-137.34 0c-1.12,0 -2.02,-0.9 -2.02,-2.02l0 -16.23c0,-1.12 0.9,-2.02 2.02,-2.02l137.34 0c1.11,0 2.01,0.89 2.02,1.99z"/>
   <path class="fil0" d="M10.84 63.65c-1.12,0 -2.02,-0.9 -2.02,-2.02l0 -5.92c0,-1.12 0.9,-2.02 2.02,-2.02 1.12,0 2.02,0.9 2.02,2.02l0 5.92c0,1.12 -0.9,2.02 -2.02,2.02z"/>
   <path class="fil0" d="M83.67 125.23l-72.83 0c-1.12,0 -2.02,-0.9 -2.02,-2.02l0 -27.34c0,-1.12 0.9,-2.02 2.02,-2.02 1.12,0 2.02,0.9 2.02,2.02l0 25.32 68.79 0 0 -116.4 -68.79 21.91 0 14.85c0,1.12 -0.9,2.02 -2.02,2.02 -1.12,0 -2.02,-0.9 -2.02,-2.02l0 -16.33c0,-0.88 0.57,-1.66 1.41,-1.93l72.83 -23.2c1.06,-0.34 2.2,0.26 2.53,1.32 0.06,0.2 0.09,0.4 0.09,0.6l0 121.19c0,1.12 -0.9,2.02 -2.02,2.02z"/>
   <path class="fil0" d="M10.84 83.74c-1.12,0 -2.02,-0.9 -2.02,-2.02l0 -5.94c0,-1.12 0.9,-2.02 2.02,-2.02 1.12,0 2.02,0.91 2.02,2.02l0 5.94c0,1.12 -0.9,2.02 -2.02,2.02z"/>
   <path class="fil0" d="M85.69 121.18l42.89 0 0 -64.97 -42.89 -15.38 0 80.35zm44.91 4.04l-46.93 0c-1.12,0 -2.02,-0.91 -2.02,-2.02l0 -85.24c0,-1.12 0.9,-2.02 2.02,-2.02 0.23,0 0.46,0.04 0.68,0.12l46.93 16.83c0.8,0.29 1.34,1.05 1.34,1.9l0 68.41c0,1.12 -0.9,2.02 -2.02,2.02z"/>
   <path class="fil0" d="M98.22 121.18l17.38 0 0 -16.06c0,-4.8 -3.88,-8.69 -8.68,-8.7 -4.8,-0 -8.69,3.88 -8.7,8.68l0 0.01 0 16.06zm19.4 4.04l-21.42 0c-1.12,0 -2.02,-0.91 -2.02,-2.02l0 -18.08c-0,-7.03 5.69,-12.73 12.72,-12.74 7.03,-0 12.73,5.69 12.74,12.72l0 0.01 0 18.08c0,1.12 -0.9,2.02 -2.02,2.02z"/>
   <path class="fil0" d="M119.01 68.66l-24.2 0c-1.12,0 -2.02,-0.9 -2.02,-2.02 0,-1.12 0.9,-2.02 2.02,-2.02l24.2 0c1.12,0 2.02,0.9 2.02,2.02 0,1.12 -0.9,2.02 -2.02,2.02z"/>
   <path class="fil0" d="M119.01 79.71l-24.2 0c-1.12,0 -2.02,-0.9 -2.02,-2.02 0,-1.12 0.9,-2.02 2.02,-2.02l24.2 0c1.12,0 2.02,0.9 2.02,2.02 0,1.12 -0.9,2.02 -2.02,2.02z"/>
   <path class="fil0" d="M58.07 47.54l9.82 0 0 -9.81 -9.82 0 0 9.81zm11.84 4.04l-13.86 0c-1.12,0 -2.02,-0.9 -2.02,-2.02l0 -13.86c0,-1.12 0.9,-2.02 2.02,-2.02l13.86 0c1.12,0 2.02,0.9 2.02,2.02l0 13.86c0,1.12 -0.9,2.02 -2.02,2.02z"/>
   <path class="fil0" d="M26.35 47.54l9.82 0 0 -9.81 -9.82 0 0 9.81zm11.84 4.04l-13.86 0c-1.12,0 -2.02,-0.9 -2.02,-2.02l0 -13.86c0,-1.12 0.9,-2.02 2.02,-2.02l13.86 0c1.12,0 2.02,0.9 2.02,2.02l0 13.86c0,1.12 -0.9,2.02 -2.02,2.02z"/>
   <path class="fil0" d="M58.07 77.92l9.82 0 0 -9.82 -9.82 0 0 9.82zm11.84 4.04l-13.86 0c-1.12,0 -2.02,-0.9 -2.02,-2.02l0 -13.86c0,-1.12 0.9,-2.02 2.02,-2.02l13.86 0c1.12,0 2.02,0.9 2.02,2.02l0 13.86c0,1.12 -0.9,2.02 -2.02,2.02l-0 0z"/>
   <path class="fil0" d="M26.35 77.92l9.82 0 0 -9.82 -9.82 0 0 9.82zm11.84 4.04l-13.86 0c-1.12,0 -2.02,-0.9 -2.02,-2.02l0 -13.86c0,-1.12 0.9,-2.02 2.02,-2.02l13.86 0c1.12,0 2.02,0.9 2.02,2.02l0 13.86c0,1.12 -0.9,2.02 -2.02,2.02l-0 0z"/>
   <path class="fil0" d="M58.07 108.3l9.82 0 0 -9.81 -9.82 0 0 9.81zm11.84 4.04l-13.86 0c-1.12,0 -2.02,-0.9 -2.02,-2.02l0 -13.86c0,-1.12 0.9,-2.02 2.02,-2.02l13.86 0c1.12,0 2.02,0.9 2.02,2.02l0 13.86c0,1.12 -0.9,2.02 -2.02,2.02z"/>
   <path class="fil0" d="M26.35 108.3l9.82 0 0 -9.81 -9.82 0 0 9.81zm11.84 4.04l-13.86 0c-1.12,0 -2.02,-0.9 -2.02,-2.02l0 -13.86c0,-1.12 0.9,-2.02 2.02,-2.02l13.86 0c1.12,0 2.02,0.9 2.02,2.02l0 13.86c0,1.12 -0.9,2.02 -2.02,2.02z"/>
  </g>
 </g>
</svg>
