<?xml version="1.0" encoding="UTF-8"?>
<!DOCTYPE svg PUBLIC "-//W3C//DTD SVG 1.1//EN" "http://www.w3.org/Graphics/SVG/1.1/DTD/svg11.dtd">
<!-- Creator: CorelDRAW 2019 (64-Bit) -->
<svg xmlns="http://www.w3.org/2000/svg" xml:space="preserve" width="36.3361mm" height="15.5716mm" version="1.1" style="shape-rendering:geometricPrecision; text-rendering:geometricPrecision; image-rendering:optimizeQuality; fill-rule:evenodd; clip-rule:evenodd"
viewBox="0 0 205.88 88.23"
 xmlns:xlink="http://www.w3.org/1999/xlink">
 <defs>
  <style type="text/css">
   <![CDATA[
    .fil0 {fill:#91268E;fill-rule:nonzero}
   ]]>
  </style>
 </defs>
 <g id="Слой_x0020_1">
  <metadata id="CorelCorpID_0Corel-Layer"/>
  <g id="_2473431074000">
   <path class="fil0" d="M198.75 70.58l-13.47 0 0 -5.88 11.6 0c4.14,-9.37 4.14,-20.04 0,-29.41l-123.35 0c-5.96,0 -36.82,2.33 -45.84,5.83l-1.56 0.6c-5.53,2.14 -20.24,7.83 -20.24,11.21l0 8.82c0,1.62 1.32,2.94 2.94,2.94l8.82 0 0 5.88 -8.82 0c-4.87,0 -8.82,-3.95 -8.82,-8.82l0 -8.82c0,-6.87 10.4,-11.44 24,-16.7l1.55 -0.59c10.46,-4.07 42.78,-6.24 47.98,-6.24l125.23 0c1.12,-0.01 2.15,0.63 2.65,1.63 2.99,5.96 4.48,12.45 4.48,18.94l0 0.03c-0,6.49 -1.5,12.98 -4.48,18.94 -0.5,1 -1.53,1.64 -2.65,1.63z"/>
   <polygon class="fil0" points="52.94,64.7 69.67,64.7 69.67,70.58 52.94,70.58 "/>
   <polygon class="fil0" points="81.44,64.7 149.99,64.7 149.99,70.58 81.44,70.58 "/>
   <path class="fil0" d="M53.74 36.65l-1.61 -5.66c6.76,-1.93 11.5,-6.18 16.98,-11.11 9.86,-8.85 22.12,-19.88 51.47,-19.88 28.06,0 42.64,11.69 53.32,20.23 6.4,5.13 11.46,9.18 17.26,9.18l0 5.88c-7.87,0 -13.92,-4.85 -20.94,-10.47 -10.53,-8.44 -23.65,-18.94 -49.64,-18.94 -27.09,0 -37.95,9.76 -47.53,18.37 -5.77,5.18 -11.22,10.08 -19.3,12.39z"/>
   <path class="fil0" d="M167.64 52.94c-8.12,0 -14.7,6.58 -14.7,14.71 0,8.12 6.58,14.7 14.7,14.7 8.12,0 14.7,-6.58 14.7,-14.7 -0.01,-8.12 -6.59,-14.7 -14.7,-14.71zm0 35.29c-11.37,0 -20.59,-9.22 -20.59,-20.59 0,-11.37 9.22,-20.59 20.59,-20.59 11.37,0 20.59,9.22 20.59,20.59 -0.01,11.36 -9.22,20.57 -20.59,20.59z"/>
   <path class="fil0" d="M35.29 52.94c-8.12,0 -14.7,6.58 -14.7,14.71 0,8.12 6.58,14.7 14.7,14.7 8.12,0 14.7,-6.58 14.7,-14.7 -0.01,-8.12 -6.59,-14.7 -14.7,-14.71zm0 35.29c-11.37,0 -20.59,-9.22 -20.59,-20.59 0,-11.37 9.22,-20.59 20.59,-20.59 11.37,0 20.59,9.22 20.59,20.59 -0.01,11.36 -9.22,20.57 -20.59,20.59z"/>
   <polygon class="fil0" points="114.7,2.98 120.58,2.98 120.58,32.35 114.7,32.35 "/>
  </g>
 </g>
</svg>
