<?xml version="1.0" encoding="UTF-8"?>
<!DOCTYPE svg PUBLIC "-//W3C//DTD SVG 1.1//EN" "http://www.w3.org/Graphics/SVG/1.1/DTD/svg11.dtd">
<!-- Creator: CorelDRAW 2019 (64-Bit) -->
<svg xmlns="http://www.w3.org/2000/svg" xml:space="preserve" width="50.5477mm" height="59.2666mm" version="1.1" style="shape-rendering:geometricPrecision; text-rendering:geometricPrecision; image-rendering:optimizeQuality; fill-rule:evenodd; clip-rule:evenodd"
viewBox="0 0 629.2 737.73"
 xmlns:xlink="http://www.w3.org/1999/xlink">
 <defs>
  <style type="text/css">
   <![CDATA[
    .str9 {stroke:#327077;stroke-width:3.29;stroke-miterlimit:10}
    .str4 {stroke:#683B38;stroke-width:3.29;stroke-miterlimit:10}
    .str13 {stroke:#6D1D6D;stroke-width:3.29;stroke-miterlimit:10}
    .str6 {stroke:#D15447;stroke-width:3.29;stroke-miterlimit:10}
    .str11 {stroke:#6D1D6D;stroke-width:8.78;stroke-miterlimit:10}
    .str10 {stroke:#6D1D6D;stroke-width:4.39;stroke-miterlimit:10}
    .str0 {stroke:white;stroke-width:4.39;stroke-miterlimit:10}
    .str8 {stroke:#327077;stroke-width:2.2;stroke-miterlimit:10}
    .str2 {stroke:#34346B;stroke-width:2.2;stroke-miterlimit:10}
    .str5 {stroke:#563238;stroke-width:2.2;stroke-miterlimit:10}
    .str3 {stroke:#683B38;stroke-width:2.2;stroke-miterlimit:10}
    .str12 {stroke:#6D1D6D;stroke-width:3.29;stroke-linejoin:round;stroke-miterlimit:4}
    .str7 {stroke:#D15447;stroke-width:3.29;stroke-linejoin:round;stroke-miterlimit:4}
    .str1 {stroke:#BC775C;stroke-width:2.2;stroke-linejoin:round;stroke-miterlimit:4}
    .str14 {stroke:#DB8F77;stroke-width:2.2;stroke-linejoin:round;stroke-miterlimit:4}
    .fil1 {fill:none;fill-rule:nonzero}
    .fil10 {fill:#030334;fill-rule:nonzero}
    .fil5 {fill:#49497A;fill-rule:nonzero}
    .fil11 {fill:#4C124C;fill-rule:nonzero}
    .fil8 {fill:#563238;fill-rule:nonzero}
    .fil14 {fill:#91268E;fill-rule:nonzero}
    .fil6 {fill:#BC3F31;fill-rule:nonzero}
    .fil12 {fill:#DA9AE8;fill-rule:nonzero}
    .fil3 {fill:#DD936F;fill-rule:nonzero}
    .fil2 {fill:#EFDBC7;fill-rule:nonzero}
    .fil0 {fill:#F4E9DC;fill-rule:nonzero}
    .fil4 {fill:#FF725E;fill-rule:nonzero}
    .fil7 {fill:#FFC299;fill-rule:nonzero}
    .fil13 {fill:#FFCCB0;fill-rule:nonzero}
    .fil9 {fill:white;fill-rule:nonzero}
   ]]>
  </style>
 </defs>
 <g id="Слой_x0020_1">
  <metadata id="CorelCorpID_0Corel-Layer"/>
  <g id="_2472078121472">
   <path class="fil0 str0" d="M422.03 612.3c0,-11.37 0.33,-22.77 1.02,-34.15 1.35,-18.47 0.25,-37.05 -3.27,-55.24 -2.86,-14.44 -4.09,-30.67 4.09,-42.66 3.7,-4.39 7.62,-8.6 11.74,-12.59 13.53,-15.34 15.66,-37.42 24.54,-55.86 10.42,-21.12 29.44,-36.73 52.18,-42.82 12.27,-3.15 27.36,-2.25 33.94,8.18 2.23,4.04 3.45,8.56 3.56,13.17 0.72,11.63 -1.71,23.24 -7.03,33.61 -5.48,10.51 -13.86,19.55 -17.71,30.75 -2.05,8.17 -3.61,16.46 -4.66,24.82 -2.87,13.59 -9.61,26.04 -19.42,35.86 -7.32,7.32 -16.69,13.58 -19.88,23.43 -2.29,7.16 -0.9,15.05 -2.86,22.29 -2.74,10.02 -11.21,17.14 -17.62,25.23 -11.94,15.25 -16.81,34.72 -21.35,53.53l-17.26 -27.56z"/>
   <path class="fil1 str0" d="M517.76 410.4c-41.12,56.81 -68.96,122.13 -81.46,191.14"/>
   <path class="fil0 str0" d="M412.66 616.55c0.41,-26.7 -13.7,-49.64 -25.35,-71.89 -16.36,-31 -36.11,-68.94 -29.28,-107.96 3.43,-19.79 13.99,-36.48 16.36,-56.43 0.63,-9.3 0.63,-18.64 0,-27.93 -0.38,-11.48 1.28,-22.93 4.91,-33.82 6.1,-15.9 16.81,-29.61 30.75,-39.38 11.45,-7.24 24.82,-1.88 32.39,10.22 10.26,16.36 9.41,39.54 7.16,59.34 -2.25,19.79 -6.05,40.24 -2.9,59.99 3.52,22.13 13.45,42.2 3.31,64.7 -4.09,9.41 -12.27,17.51 -12.64,27.97 0.36,5.77 1.32,11.48 2.86,17.05 2,12.27 -1.55,24.54 -3.52,36.81 -3.31,21.1 -1.77,42.68 4.5,63.1l-28.54 -1.76z"/>
   <path class="fil1 str0" d="M421.58 328.9c-19.1,102.97 -8.18,210.77 14.19,301.35"/>
   <path class="fil0 str0" d="M398.68 626.66c-2.44,-26.17 -15,-50.35 -35.01,-67.39 -9.69,-8.18 -21.8,-15.83 -23.96,-28.3 -0.12,-4.1 -0.87,-8.15 -2.21,-12.03 -2.66,-5.03 -8.75,-6.91 -14.07,-9.04 -13.91,-5.72 -25.54,-15.85 -33.12,-28.83 -6.34,-10.67 -12.27,-27.44 -10.75,-40.07 2.9,-24.05 43.55,-15.95 57.25,-9.7 8.18,3.8 13.58,7.36 17.22,16.12 1.84,6.15 4.6,12 8.18,17.33 6.99,8.18 19.47,10.6 26.42,18.98 10.02,12.02 4.62,30.55 10.39,44.98 2.79,5.7 6.05,11.18 9.73,16.36 12.55,20.81 12.27,46.87 8.18,70.82l-18.24 10.76z"/>
   <path class="fil1 str0" d="M317.22 458.41c46.2,35.01 76.78,86.79 85.14,144.15"/>
   <path class="fil2" d="M350.34 575l0 32.72c0,85.02 34.19,97.78 34.19,97.78l75.29 0c0,0 34.18,-12.76 34.18,-97.78l0 -32.72 -143.66 0z"/>
   <path class="fil3" d="M331.82 273.33l32.43 1.15c2.17,0.03 4.35,0.21 6.5,0.53 0.5,0.02 0.97,0.24 1.31,0.61 0.35,0.59 0.21,1.34 -0.33,1.76 -0.54,0.41 -1.17,0.66 -1.84,0.74l-11.08 2.5c9.07,3.31 29.19,10.02 29.19,13.09 0,3.07 -18.44,-1.96 -27.52,-3.48 7.93,2 29.56,9.28 28.26,12.51 -1.31,3.23 -22.49,-3.19 -30.47,-4.09 9.16,2.29 27.44,6.87 26.58,9.53 -0.86,2.66 -18.82,-1.27 -28.06,-3.39 7.01,1.56 13.86,3.78 20.45,6.63 1.19,0.49 2.54,1.31 2.5,2.58 -0.94,0.27 -1.93,0.27 -2.86,0 -13.63,-1.44 -27.08,-4.29 -40.12,-8.51 -6.01,-2.24 -12.21,-3.91 -18.52,-4.99l13.58 -27.15z"/>
   <path class="fil1 str1" d="M338.6 286.99c2.67,0.91 5.58,0.82 8.18,-0.25 2.6,-1.03 5.05,-2.4 7.28,-4.09"/>
   <path class="fil4" d="M175.8 198.41c0,0 26.95,64.69 51.73,85.88 12.27,10.39 102.24,23.51 102.24,23.51l9.61 -36.15c0,0 -67.47,-29.49 -75.08,-37.09 -7.61,-7.61 -22.12,-83.47 -47.6,-108.94 -11.69,-11.66 -45.84,-19.02 -45.84,-19.02l4.95 91.81z"/>
   <path class="fil5" d="M167.63 706.28c-5.4,8.75 -3.68,22.49 -1.64,22.37 4.26,0.88 8.61,1.33 12.96,1.35 1.47,0 2.62,-2.13 4.09,-2.17 1.47,-0.04 4.09,1.96 5.97,1.88 15.29,-0.53 27.64,-1.1 27.93,-3.84 0.9,-7.36 -35.7,-18.77 -35.7,-18.77l-13.62 -0.82z"/>
   <path class="fil3" d="M188.28 653.19l-2.05 55.49c-3.21,1.75 -6.78,2.75 -10.43,2.9 -3.43,0.46 -6.9,-0.47 -9.65,-2.58l-8.92 -61.34 31.04 5.52z"/>
   <line class="fil1 str2" x1="189.79" y1="709.95" x2="186.07" y2= "717.23" />
   <line class="fil1 str2" x1="195.19" y1="711.96" x2="192.12" y2= "718.34" />
   <line class="fil1 str2" x1="201.16" y1="714.21" x2="198.67" y2= "719.57" />
   <path class="fil5" d="M49.28 707.5c-6.99,7.56 -8.18,21.35 -5.97,21.63 3.95,1.7 8.06,2.98 12.27,3.84 1.43,0.29 2.99,-1.51 4.54,-1.27 1.55,0.25 3.6,2.7 5.52,3.03 9.88,1.64 18.54,2.99 23.57,2.99 2.64,-0 4.27,-0.37 4.57,-1.27 2.29,-7.03 -31.37,-25.39 -31.37,-25.39l-13.13 -3.56z"/>
   <path class="fil3" d="M79.87 659.41l-12.92 53.98c-3.46,1.09 -7.13,1.35 -10.71,0.78 -3.46,-0.2 -6.69,-1.79 -8.96,-4.42l3.27 -61.71 29.32 11.37z"/>
   <line class="fil1 str2" x1="75.12" y1="718.38" x2="70.83" y2= "724.02" />
   <line class="fil1 str2" x1="80.52" y1="721.78" x2="77" y2= "726.52" />
   <line class="fil1 str2" x1="70.22" y1="715.35" x2="65.1" y2= "721.77" />
   <path class="fil6" d="M203.41 317.25c0,0 5.81,153.89 5.81,182.06l0 193.92c0,0 -33.41,14.07 -51.73,4.09 -5.28,-33.21 -12.64,-140.59 -12.64,-154.66 0,-60.36 -40.36,-157.94 -30.96,-197.32l89.52 -28.09z"/>
   <path class="fil6" d="M50.18 301.22c-13.62,76.43 -0.57,135.73 -0.57,204.14 0,68.42 -5.64,130.45 -5.64,195.52 12.27,6.01 34.8,7.12 53.86,2.41 0,-9.04 47.03,-314.64 47.03,-369.93l-94.67 -32.14z"/>
   <path class="fil1 str3" d="M112.46 337.9c-2.25,2.41 -0.74,131.97 -9,197.72 -6.14,48.83 -21.27,165.79 -21.27,165.79"/>
   <path class="fil1 str3" d="M187.71 314.14c0,0 4.95,115.36 7.81,205.54 1.6,49.07 0,169.22 0,169.22"/>
   <line class="fil1 str4" x1="132.17" y1="455.51" x2="145.63" y2= "382.96" />
   <path class="fil7" d="M61.63 130.89c-8.18,53.53 -16.15,136.05 -9.69,192.2 46.17,26.87 104.4,22.57 156.34,9.41 3.23,-29.98 -2.05,-175.07 -16.36,-201.65 0,0 -2.82,-26.05 -52.96,-26.05 -5.52,0 -25.19,-2 -25.19,-2l-52.14 28.1z"/>
   <path class="fil3" d="M165.25 79.98l-0.86 23.96 12.96 5.28c0,0 -12.68,16.36 -30.38,16.36 -17.71,0 -33.08,-22.82 -33.08,-22.82l15.75 -1.92 11.37 -38.85 24.25 17.99z"/>
   <path class="fil3" d="M182.14 25.84c0,0 7.08,49.07 0,56.31 -7.08,7.24 -33.62,4.78 -38.4,0 -4.78,-4.78 -14.11,-27.73 -14.11,-37.54 0,-9.81 32.67,-49.16 52.51,-18.77z"/>
   <path class="fil5" d="M134.91 2.36c-11.46,3.65 -20.25,12.91 -23.31,24.54 -5.4,19.55 0.9,48.62 24.54,52.06 1.8,0.37 3.66,0.24 5.4,-0.37 1.74,-0.68 2.99,-2.24 3.27,-4.09 -0.07,-1.58 -0.55,-3.12 -1.39,-4.46 -3.82,-6.82 -5.26,-14.72 -4.09,-22.45 0.69,-2.49 1.53,-4.93 2.49,-7.32 0.6,-2.21 1.43,-4.34 2.45,-6.38 1.68,-2.74 4.45,-4.64 7.61,-5.24 5.6,-1.15 9.69,4.33 15.17,2.58 1.87,-0.78 3.62,-1.83 5.19,-3.11 1.61,-1.27 3.74,-1.7 5.73,-1.14 1.15,0.45 2.33,1.51 3.48,0.98 0.82,-0.56 1.3,-1.5 1.27,-2.49 1.01,-5.27 -0.29,-10.71 -3.56,-14.97 -3.69,-3.7 -8.25,-6.42 -13.25,-7.93 -5.02,-1.68 -10.25,-2.53 -15.48,-2.57l-0.65 0c-5.01,0.03 -10.03,0.82 -14.86,2.36z"/>
   <path class="fil3" d="M142.64 55.85c-3.11,-3.6 -9.61,-4.09 -10.18,1.84 -0.29,5.34 2.58,10.36 7.32,12.84 2.65,0.89 5.57,-0.15 7.03,-2.53l-4.17 -12.15z"/>
   <path class="fil8" d="M160.02 53.19c-0.17,-1.25 -0.45,-2.48 -0.82,-3.68 -0.49,-1.1 -2.21,-2.45 -2.99,-0.86 -0.67,1.93 -0.43,4.07 0.65,5.81 0.58,0.78 1.69,0.93 2.46,0.34 0.5,-0.38 0.76,-0.99 0.69,-1.61z"/>
   <path class="fil8" d="M180.22 49.72c0.02,-1.28 -0.11,-2.55 -0.37,-3.8 -0.37,-1.06 -1.8,-2.7 -2.82,-1.15 -0.88,1.85 -0.88,4 0,5.85 0.56,0.79 1.66,0.98 2.45,0.42 0.43,-0.31 0.7,-0.79 0.74,-1.32z"/>
   <path class="fil1 str5" d="M146.81 45.01c3.57,-3.73 9.1,-4.83 13.82,-2.74"/>
   <path class="fil1 str5" d="M171.39 39.49c1.86,-2.98 5.64,-4.11 8.83,-2.66"/>
   <path class="fil1 str1" d="M171.72 47.71c3.6,6.5 5.15,14.93 2.82,16.36 -3.3,1.27 -6.96,1.27 -10.26,0"/>
   <path class="fil9" d="M177.36 69.55l-18.28 0c1.14,5.03 5.89,8.38 11,7.77 4.11,-0.09 7.37,-3.49 7.28,-7.6 0,-0.06 0,-0.11 -0,-0.17z"/>
   <path class="fil4" d="M213.88 169.86l0 206.39c-4.54,14.27 -31.74,20.94 -31.74,20.94 0,0 -1.92,-55.17 -1.92,-124.6 0,-69.44 -9.32,-166.03 -9.32,-166.03 0,0 36.81,11.12 38.32,24.95 1.51,13.82 4.66,38.36 4.66,38.36z"/>
   <line class="fil1 str6" x1="213.88" y1="261.14" x2="213.88" y2= "169.87" />
   <path class="fil4" d="M37.25 379.86c30.43,25.72 85.88,17.38 85.88,17.38l0 -180.75c0.4,-38.13 -1.12,-76.25 -4.58,-114.22 0,0 -46.37,0.57 -61.34,18.08 -14.97,17.5 -16.93,220.42 -19.96,259.52z"/>
   <path class="fil1 str7" d="M94.43 104.97c0,0 -8.18,63.47 -3.07,67.07 4.61,2.69 9.37,5.15 14.23,7.36l-12.64 7.85c0.65,31.24 27.19,99.04 27.19,99.04"/>
   <path class="fil1 str7" d="M179.08 110.45c0,0 15.83,39.79 14.76,52.92 0,4.09 -10.8,10.55 -10.8,10.55l12.27 5.68c-0.93,33.8 -5.04,67.44 -12.27,100.48"/>
   <path class="fil3" d="M78.35 361.74c8.52,7.3 15.63,16.1 20.98,25.97 0.66,1.19 2.66,5.15 -0.41,4.38 -2.21,-0.57 -3.76,-3.19 -5.6,-4.42 -0.32,-0.27 -0.72,-0.45 -1.15,-0.49 -1.02,0 -1.43,1.31 -1.39,2.33 0.29,5.81 5.24,12.27 8.83,16.6 1.43,1.72 4.09,3.52 3.85,6.05 -3.73,-0.94 -7.11,-2.95 -9.73,-5.77 -2.71,-3.01 -5.16,-6.26 -7.32,-9.69 2.78,8.18 12.27,15.54 10.96,17.14 -1.31,1.59 -7.24,-2.37 -10.02,-5.16 -2.53,-2.5 -4.69,-5.35 -6.42,-8.46 1.77,4.39 4.14,8.52 7.03,12.27 0.61,0.86 1.19,2.13 0.49,2.9 -5.13,-3.44 -9.46,-7.94 -12.68,-13.21 1.88,4.87 7.81,11.61 7.61,12.27 -0.61,2.33 -9.49,-5.4 -11.78,-8.84 -6.14,-9.46 -9.81,-20.32 -10.67,-31.57l17.42 -12.31z"/>
   <path class="fil4" d="M85.39 106.36c0,0 -30.38,4.09 -48.62,23.27 -21.8,23.55 -40.89,103.5 -35.99,139.2 10.59,75 58.44,115.03 58.44,115.03l29.69 -18.32c0,0 -26.87,-83.34 -26.87,-100.52 0,-17.17 13.41,-65.14 13.41,-65.14l9.94 -93.53z"/>
   <path class="fil1 str6" d="M88.9 365.54c0,0 -26.87,-83.34 -26.87,-100.52 0,-17.18 20.45,-101.83 20.45,-101.83"/>
   <path class="fil1 str6" d="M38.36 358.43c5.88,9.3 12.89,17.85 20.86,25.44"/>
   <path class="fil10" d="M523.9 82.92c5.74,4.8 10.14,11.02 12.76,18.03 0.43,3.11 1.46,6.11 3.03,8.83 3.37,3.66 8.93,4.22 12.96,1.31 3.82,-2.98 6.18,-7.44 6.5,-12.27 0.33,-2.34 0.12,-4.71 -0.61,-6.95 -1.55,-3.47 -4.19,-6.34 -7.52,-8.18 -4.15,-2.72 -8.73,-4.74 -13.54,-5.97 -5.07,-1.23 -10.31,-1.6 -15.34,-2.98l1.76 8.18z"/>
   <path class="fil10" d="M501.81 710.08c5.4,8.75 3.68,22.49 1.64,22.37 -4.27,0.88 -8.61,1.32 -12.96,1.35 -1.47,0 -2.62,-2.13 -4.09,-2.16 -1.47,-0.04 -4.09,1.96 -5.97,1.88 -15.3,-0.53 -27.6,-1.1 -27.94,-3.84 -0.89,-7.36 35.7,-18.73 35.7,-18.73l13.62 -0.86z"/>
   <path class="fil3" d="M481.25 653.19l2.05 59.3c3.19,1.74 6.75,2.71 10.39,2.86 3.43,0.46 6.91,-0.47 9.65,-2.58l8.91 -64.94 -30.99 5.36z"/>
   <line class="fil1 str2" x1="479.73" y1="713.76" x2="483.49" y2= "721.08" />
   <line class="fil1 str2" x1="474.33" y1="715.76" x2="477.4" y2= "722.15" />
   <line class="fil1 str2" x1="468.36" y1="718.05" x2="470.86" y2= "723.37" />
   <path class="fil10" d="M620.24 707.5c6.99,7.56 8.18,21.35 5.97,21.63 -3.95,1.7 -8.06,2.98 -12.27,3.84 -1.43,0.29 -2.98,-1.51 -4.53,-1.27 -1.55,0.25 -3.6,2.7 -5.53,3.03 -9.88,1.64 -18.54,2.99 -23.57,2.99 -2.64,-0 -4.27,-0.37 -4.57,-1.27 -2.29,-7.03 31.37,-25.39 31.37,-25.39l13.13 -3.56z"/>
   <path class="fil3" d="M589.66 659.41l12.92 53.98c3.46,1.09 7.13,1.35 10.71,0.78 3.46,-0.2 6.69,-1.79 8.95,-4.42l-3.27 -61.71 -29.32 11.37z"/>
   <line class="fil1 str2" x1="594.4" y1="718.38" x2="598.69" y2= "724.02" />
   <line class="fil1 str2" x1="589" y1="721.78" x2="592.52" y2= "726.52" />
   <line class="fil1 str2" x1="599.3" y1="715.35" x2="604.42" y2= "721.77" />
   <path class="fil11" d="M466.15 317.25c0,0 -1.96,153.89 -1.96,182.06 0,71.61 11.74,204.1 11.74,204.1 0,0 25.93,6.67 36.19,-2.37 5.27,-33.21 15.78,-144.39 16.36,-158.46 2.13,-47.23 36.56,-157.93 27.15,-197.32l-89.48 -28.01z"/>
   <path class="fil1 str8" d="M539.76 317.78c0,0 -20.45,163.58 -22.12,214.74 -1.68,51.16 -13.5,168.89 -13.5,168.89"/>
   <path class="fil11" d="M619.35 301.22c13.62,76.43 0.57,135.73 0.57,204.14 0,68.42 5.65,130.45 5.65,195.52 -11.26,5.21 -24.05,6.07 -35.91,2.41 -4.91,-17.18 -64.12,-293.99 -73.61,-369.93l103.3 -32.14z"/>
   <path class="fil1 str8" d="M594.52 329.39c2.29,2.41 1.19,135.16 9.45,200.91 6.13,49.07 13.13,173.72 13.13,173.72"/>
   <line class="fil1 str9" x1="540.42" y1="470.24" x2="523.9" y2= "382.96" />
   <path class="fil12" d="M500.87 115.52c-9.65,-1.84 -21.1,-3.15 -27.89,4.09 -3.57,4.57 -5.67,10.12 -6.01,15.91 -6.87,45.92 -3.68,92.67 -0.53,139.04l5.64 81.79c-0.04,2.17 0.53,4.31 1.63,6.18 1.75,1.84 4.07,3.02 6.59,3.35 32.48,7.68 66.55,4.98 97.41,-7.73 6.22,-2.58 12.76,-6.01 15.66,-12.06 2,-5.33 2.4,-11.13 1.14,-16.68 -4.37,-31.49 -14.11,-62.16 -16.72,-93.81 -2.13,-25.4 0.33,-51.04 -2.58,-76.35 -1.64,-14.03 -5.19,-28.63 -14.52,-39.05 -9.32,-10.43 -25.68,-16.03 -38.03,-9.28l-21.8 4.62z"/>
   <path class="fil13" d="M471.39 33.65c0,0 0,49.77 8.18,55.74 8.18,5.97 33.98,0 38.03,-5.6 4.05,-5.6 9.9,-29.48 8.46,-39.18 -1.43,-9.69 -39.46,-43.88 -54.68,-10.96z"/>
   <path class="fil13" d="M488.4 81.82l0.86 26.01 -8.51 1.88c0,0 0.49,14.31 25.93,11.29 25.43,-3.03 28.99,-18.12 28.99,-18.12l-11.74 0 -11.37 -38.85 -24.17 17.79z"/>
   <path class="fil14" d="M485.7 107.87c0,0 -29.69,2.25 -45.56,25.89 -24.54,36.8 -31.37,87.27 -26.95,127.39 4.42,40.12 54.1,103.95 54.1,103.95l11.12 -13.37c0,0 -24.09,-81.34 -24.09,-103.09 0,-21.76 15.91,-72.3 15.91,-72.3l15.46 -68.46z"/>
   <path class="fil14" d="M440.96 172.65c2.7,47.44 10.26,180.47 11.16,196.78 5.32,13.37 32.72,18.16 32.72,18.16 0,0 -1.06,-52.71 -4.83,-118.92 -3.76,-66.21 5.56,-160.8 5.56,-160.8 0,0 -41.26,14.84 -42.04,27.97 -0.78,13.13 -2.58,36.81 -2.58,36.81z"/>
   <path class="fil1 str10" d="M440.96 172.65c2.7,47.44 10.26,180.47 11.16,196.78 5.32,13.37 32.72,18.16 32.72,18.16 0,0 -1.06,-52.71 -4.83,-118.92 -3.76,-66.21 5.56,-160.8 5.56,-160.8 0,0 -41.26,14.84 -42.04,27.97 -0.78,13.13 -2.58,36.81 -2.58,36.81z"/>
   <line class="fil1 str11" x1="452.08" y1="343.71" x2="440.96" y2= "172.65" />
   <path class="fil14" d="M628.67 362.8c-28.99,26.21 -84.81,21.63 -84.81,21.63 0,0 -6.01,-105.18 -9.82,-172.29 -2.37,-36.36 -2.79,-72.82 -1.26,-109.23 0,0 49.15,-3.76 71.2,44.33 21.76,47.46 25.15,113.85 25.23,163.66l0 4.12c-0.04,19.46 -0.53,36.14 -0.53,47.78z"/>
   <line class="fil1 str11" x1="562.42" y1="310.46" x2="603.97" y2= "307.8" />
   <line class="fil1 str11" x1="450.29" y1="314.71" x2="476.09" y2= "314.71" />
   <path class="fil1 str12" d="M472.49 113.84c0,0 -13.66,46.29 -11.9,58.81 0.25,3.88 11.33,9.41 11.33,9.41l-11.82 6.09c3.21,29.68 9.15,59.01 17.75,87.6"/>
   <path class="fil1 str12" d="M544.47 104.48c0,0 9.2,47.44 7.77,60.24 0,4.09 -9.28,9.9 -9.28,9.9l9.77 5.93c-0.91,30.13 -4.94,60.09 -12.02,89.39"/>
   <path class="fil13" d="M380.28 289.4l-24.95 0.98c-1.7,0.04 -3.39,0.21 -5.07,0.49 -0.39,0.02 -0.75,0.22 -0.98,0.53 -0.27,0.55 -0.16,1.21 0.29,1.64 0.4,0.34 0.88,0.57 1.39,0.65l8.59 2.21c-7.08,3.03 -22.57,9.12 -22.57,11.86 0,2.74 14.23,-1.76 21.26,-3.15 -6.13,1.84 -22.86,8.38 -21.84,11.33 1.02,2.94 17.38,-2.86 23.56,-3.84 -7.08,2.04 -21.22,6.17 -20.45,8.59 0.78,2.41 14.56,-1.15 21.67,-3.07 -5.51,1.44 -10.85,3.44 -15.95,5.97 -0.9,0.45 -1.96,1.19 -1.92,2.37 0.72,0.2 1.49,0.2 2.21,0 10.6,-1.33 21.01,-3.91 31,-7.69 4.6,-2 9.4,-3.53 14.31,-4.54l-10.55 -24.33z"/>
   <path class="fil14" d="M562.09 141.81c0,0 -47.11,74.96 -66.78,94.79 -19.67,19.83 -117.82,52.38 -117.82,52.38l8.18 27.24c0,0 111.81,-6.5 145.46,-25.52 33.66,-19.02 73,-67.88 73,-67.88l-42.04 -81.01z"/>
   <path class="fil1 str11" d="M560.21 146.39c-2.49,4.09 -45.56,72.47 -64.74,90.21 -17.5,16.15 -82.12,43.31 -82.12,43.31"/>
   <path class="fil1 str13" d="M603.97 222.82c-2.33,4.09 -33.65,45.56 -69.24,65.43 -38.6,21.67 -103.1,22.17 -103.1,22.17"/>
   <path class="fil10" d="M513.18 42.6c-4.87,0 -38.81,-1.64 -49.07,-8.91 -2.86,-1.92 -4.9,-4.84 -5.72,-8.18 -0.77,-3.51 0.69,-7.13 3.68,-9.12 1.27,-0.7 2.65,-1.19 4.09,-1.43 11.54,-2.74 23.29,-4.54 35.13,-5.4 6.23,-0.97 12.61,-0.28 18.48,2 5.65,3.09 9.89,8.25 11.82,14.39 1.86,6.09 2.77,12.44 2.7,18.81l0 1.35c0,10.06 0.49,20.98 -3.6,30.34 -0.57,1.44 -1.3,2.81 -2.17,4.09 -1.61,2.06 -3.96,3.4 -6.54,3.76 -4.09,0.53 -5.93,-3.27 -6.87,-6.62 -2.16,-8.08 -3.24,-16.41 -3.23,-24.78 -0.29,-3.48 0.19,-6.98 1.39,-10.26l-0.08 -0.04z"/>
   <path class="fil13" d="M507.05 60.47c-0.7,-1.72 1.64,-3.07 3.6,-3.84 1.39,-0.65 2.94,-0.88 4.46,-0.7 1.88,0.65 3.23,2.32 3.48,4.29 0.55,2.14 0.81,4.34 0.78,6.54 0.23,2.81 -0.84,5.57 -2.9,7.48 -2.52,2.11 -6.19,2.11 -8.71,0l-0.7 -13.78z"/>
   <path class="fil10" d="M495.47 47.92l6.34 0 3.11 0c1.09,0.18 2.21,-0.01 3.19,-0.53 0.36,-0.31 0.4,-0.85 0.1,-1.21 -0.03,-0.04 -0.06,-0.07 -0.1,-0.1 -0.94,-0.67 -2.08,-0.99 -3.23,-0.9l-3.23 0c-2.21,0.16 -4.41,0.46 -6.58,0.9 -0.5,0.15 -0.78,0.67 -0.62,1.17 0.11,0.39 0.47,0.65 0.87,0.67l0.16 0z"/>
   <path class="fil10" d="M482.14 45.01c-1.58,-0.97 -3.23,-1.8 -4.95,-2.49 -0.85,-0.38 -1.73,-0.69 -2.62,-0.94 -0.86,-0.24 -2.41,-0.69 -2.9,0.41 -0.49,1.1 1.19,1.76 2.09,2.05 0.9,0.29 1.76,0.45 2.62,0.74 1.72,0.53 3.44,1.15 5.11,1.84 0.44,0.18 0.94,-0.03 1.13,-0.47 0.18,-0.44 -0.03,-0.94 -0.47,-1.13z"/>
   <path class="fil10" d="M501.57 59.16c0.33,-1.76 0,-4.09 -1.47,-4.5l-0.37 0c-0.64,-0.11 -1.28,0.23 -1.55,0.82 -0.53,1.64 -0.82,4.5 0.82,5.6 1.64,1.1 2.33,-0.33 2.58,-1.92z"/>
   <path class="fil10" d="M480.51 55.65c0.29,-1.8 0,-4.09 -1.47,-4.54l-0.37 0c-0.65,-0.12 -1.31,0.22 -1.6,0.82 -0.53,1.59 -0.77,4.5 0.86,5.6 1.64,1.11 2.33,-0.25 2.58,-1.88z"/>
   <path class="fil1 str14" d="M487.38 53.19c-3.48,5.93 -5.44,13.86 -3.6,15.54 2.63,1.41 5.72,1.67 8.55,0.74"/>
   <path class="fil1 str14" d="M489.05 91.84c7.67,0.51 15.34,-0.9 22.33,-4.09"/>
   <path class="fil9" d="M483.53 75.77l14.44 0.94c0,0 -1.8,8.18 -9.2,7.28 -6.01,-0.82 -5.24,-8.22 -5.24,-8.22z"/>
  </g>
 </g>
</svg>
