<?xml version="1.0" encoding="UTF-8"?>
<!DOCTYPE svg PUBLIC "-//W3C//DTD SVG 1.1//EN" "http://www.w3.org/Graphics/SVG/1.1/DTD/svg11.dtd">
<!-- Creator: CorelDRAW 2019 (64-Bit) -->
<svg xmlns="http://www.w3.org/2000/svg" xml:space="preserve" width="15.7038mm" height="26.8112mm" version="1.1" style="shape-rendering:geometricPrecision; text-rendering:geometricPrecision; image-rendering:optimizeQuality; fill-rule:evenodd; clip-rule:evenodd"
viewBox="0 0 68.14 116.34"
 xmlns:xlink="http://www.w3.org/1999/xlink">
 <defs>
  <style type="text/css">
   <![CDATA[
    .fil0 {fill:#91268E;fill-rule:nonzero}
   ]]>
  </style>
 </defs>
 <g id="Слой_x0020_1">
  <metadata id="CorelCorpID_0Corel-Layer"/>
  <g id="_2473208261968">
   <path class="fil0" d="M6.65 3.32c-1.84,0 -3.32,1.49 -3.32,3.32l0 103.04c0,1.84 1.49,3.32 3.32,3.32l54.85 0c1.84,0 3.32,-1.49 3.32,-3.32l0 -103.04c0,-1.84 -1.49,-3.32 -3.32,-3.32l-54.85 0zm-0.01 -3.32l54.87 0c3.67,0.01 6.64,2.98 6.64,6.65l0 103.04c0,3.67 -2.98,6.65 -6.65,6.65l-54.85 0c-3.67,0 -6.65,-2.97 -6.65,-6.64l0 -103.05c0,-3.67 2.97,-6.64 6.64,-6.64z"/>
   <path class="fil0" d="M66.48 18.28l-64.82 0c-0.92,0 -1.66,-0.74 -1.66,-1.66 0,-0.92 0.74,-1.66 1.66,-1.66l64.82 0c0.92,0 1.66,0.74 1.66,1.66 0,0.92 -0.74,1.66 -1.66,1.66z"/>
   <path class="fil0" d="M66.48 94.73l-64.82 0c-0.92,0 -1.66,-0.74 -1.66,-1.66 0,-0.92 0.74,-1.66 1.66,-1.66l64.82 0c0.92,0 1.66,0.74 1.66,1.66 0,0.92 -0.74,1.66 -1.66,1.66z"/>
   <path class="fil0" d="M34.07 101.07c-1.55,0 -2.81,1.26 -2.81,2.81 0,1.55 1.26,2.8 2.81,2.8 1.55,0 2.81,-1.26 2.81,-2.8l0 -0c-0,-1.55 -1.26,-2.8 -2.81,-2.8zm0 8.93c-3.39,0 -6.13,-2.74 -6.13,-6.13 0,-3.39 2.74,-6.13 6.13,-6.13 3.39,0 6.13,2.74 6.13,6.13 -0,3.38 -2.75,6.13 -6.13,6.13z"/>
   <path class="fil0" d="M40.72 11.22l-13.3 0c-0.92,0 -1.66,-0.74 -1.66,-1.66 0,-0.92 0.74,-1.66 1.66,-1.66l13.3 0c0.92,0 1.66,0.74 1.66,1.66 0,0.92 -0.74,1.66 -1.66,1.66z"/>
  </g>
 </g>
</svg>
